<?xml version="1.0" standalone="no"?>
<!DOCTYPE svg PUBLIC "-//W3C//DTD SVG 20010904//EN"
 "http://www.w3.org/TR/2001/REC-SVG-20010904/DTD/svg10.dtd">
<svg version="1.0" xmlns="http://www.w3.org/2000/svg"
 width="512.000000pt" height="512.000000pt" viewBox="0 0 512.000000 512.000000"
 preserveAspectRatio="xMidYMid meet">
<metadata>
Created by potrace 1.11, written by Peter Selinger 2001-2013
</metadata>
<g transform="translate(0.000000,512.000000) scale(0.100000,-0.100000)"
fill="#000000" stroke="none">
<path d="M2992 4285 c-47 -21 -59 -57 -57 -180 1 -101 2 -106 30 -135 39 -41
92 -42 137 -1 31 28 31 28 33 132 1 123 -7 154 -49 180 -37 22 -50 23 -94 4z"/>
<path d="M2220 4083 c-30 -12 -60 -47 -66 -79 -5 -27 2 -48 39 -116 52 -95 77
-125 112 -134 58 -14 119 28 123 86 3 35 -73 182 -113 220 -22 21 -70 33 -95
23z"/>
<path d="M3768 4073 c-15 -9 -33 -28 -40 -42 -7 -14 -29 -51 -48 -81 -47 -74
-49 -140 -7 -176 30 -26 71 -31 110 -13 14 6 47 50 81 107 48 82 56 102 51
132 -11 70 -89 108 -147 73z"/>
<path d="M2975 3662 c-132 -9 -286 -52 -407 -113 -224 -113 -410 -320 -500
-555 l-30 -81 -102 -7 c-106 -6 -204 -25 -271 -52 -279 -112 -468 -278 -592
-524 -44 -86 -91 -239 -99 -322 -4 -39 -12 -68 -18 -69 -6 0 -20 -2 -31 -4
-11 -2 -40 -7 -65 -10 -25 -4 -83 -25 -129 -47 -235 -112 -360 -381 -296 -633
52 -204 212 -360 420 -408 50 -12 311 -14 1529 -14 808 0 1490 4 1515 9 68 12
141 52 198 107 163 155 163 415 1 573 -60 59 -130 94 -218 110 -53 10 -61 15
-66 37 -13 58 -38 138 -57 175 l-19 39 44 46 c140 145 240 350 273 556 16 99
12 265 -10 367 -62 301 -270 569 -550 711 -74 37 -169 72 -225 82 -18 3 -36 8
-40 10 -16 10 -192 22 -255 17z"/>
<path d="M1642 3505 c-86 -37 -84 -139 3 -190 84 -50 156 -83 172 -80 10 2 23
4 29 4 20 2 55 39 63 68 16 59 -5 89 -104 148 -100 59 -123 66 -163 50z"/>
<path d="M4375 3510 c-45 -10 -203 -107 -210 -129 -20 -64 -5 -110 43 -135 37
-19 74 -13 130 21 26 16 58 34 72 41 57 30 80 61 80 109 0 58 -59 106 -115 93z"/>
<path d="M4378 2701 c-27 -24 -33 -36 -33 -71 0 -35 6 -47 34 -72 l33 -30 120
4 c117 3 120 4 144 31 15 18 24 41 24 63 0 82 -39 104 -184 104 -102 0 -107
-1 -138 -29z"/>
<path d="M4207 2011 c-55 -27 -68 -112 -24 -155 26 -26 182 -108 204 -108 85
0 134 90 84 154 -24 29 -165 113 -204 120 -15 3 -42 -2 -60 -11z"/>
</g>
</svg>
